/* XPM */
static char *coin[] = {
"32 32 5 1 ",
" 	c #0D1012",
".	c #000000",
"#	c #FF0000",
"@	c #00FFFF",
"%	c #595959",
"                                ",
"                                ",
"                                ",
"                                ",
"                                ",
"                                ",
"             ......             ",
"            .######.            ",
"          ..########..          ",
"         .############.         ",
"         .############.         ",
"        .####@@###@@###.        ",
"        .###@@@##@@@###.        ",
"       .####@@@##@@@####.       ",
"       .####@@@##@@@####.       ",
"       .################.       ",
"       .################.       ",
"       .################.       ",
"       .################.       ",
"       .################.       ",
"       .################.       ",
"       .################.       ",
"       .###.###..###.###.       ",
"       .##..##. .##..##.        ",
"       .#. .#.  .#. .#.         ",
"        .   .    .   .          ",
"                                ",
"           %%%%%%%%%            ",
"        %%%%%%%%%%%%%%          ",
"           %%%%%%%%%            ",
"                                ",
"                                ",
"                                "};
