/* XPM */
static char *wall_xpm[] = {
"32 32 3 1",
" 	c #0D1012",
"-	c #0E1D2B",
"B	c #0077EE",
"  BB------------------------BB  ",
"  BB------------------------BB  ",
"  BB------------------------BB  ",
"  BB------------------------BB  ",
"  BB------------------------BB  ",
"  BB------------------------BB  ",
"  BB------------------------BB  ",
"  BB------------------------BB  ",
"  BB------------------------BB  ",
"  BB------------------------BB  ",
"  BB------------------------BB  ",
"  BB------------------------BB  ",
"  BB------------------------BB  ",
"  BB------------------------BB  ",
"  BB------------------------BB  ",
"  BB------------------------BB  ",
"  BB------------------------BB  ",
"  BB------------------------BB  ",
"  BB------------------------BB  ",
"  BB------------------------BB  ",
"  BB------------------------BB  ",
"  BB------------------------BB  ",
"  BB------------------------BB  ",
"  BB------------------------BB  ",
"  BB------------------------BB  ",
"  BB------------------------BB  ",
"  BB------------------------BB  ",
"  BB------------------------BB  ",
"  BB------------------------BB  ",
"  BB------------------------BB  ",
"  BB------------------------BB  ",
"  BB------------------------BB  "};
