/* XPM */
static char * player_right_xpm[] = {
"32 32 2 1",
" 	c #0D1012",
"Y	c #FFFF00",
"                                ",
"                                ",
"                                ",
"                                ",
"           YYYYYYYYYY           ",
"         YYYYYYYYYYYYYY         ",
"        YYYYYYYYYYYYYYYY        ",
"       YYYYYYYYYYYYYYYYYY       ",
"      YYYYYYYYYYYYYYYYYYYY      ",
"     YYYYYYYYYYYYYYYYYYYY       ",
"    YYYYYYYYYYYYYYYYYYYY        ",
"    YYYYYYYYYYYYYYYYYYY         ",
"   YYYYYYYYYYYYYYYYYYY          ",
"   YYYYYYYYYYYYYYYYYY           ",
"   YYYYYYYYYYYYYYYYY            ",
"   YYYYYYYYYYYYYYYY             ",
"   YYYYYYYYYYYYYYYY             ",
"   YYYYYYYYYYYYYYYYY            ",
"   YYYYYYYYYYYYYYYYYY           ",
"   YYYYYYYYYYYYYYYYYYY          ",
"    YYYYYYYYYYYYYYYYYYY         ",
"    YYYYYYYYYYYYYYYYYYYY        ",
"     YYYYYYYYYYYYYYYYYYYY       ",
"      YYYYYYYYYYYYYYYYYYYY      ",
"       YYYYYYYYYYYYYYYYYY       ",
"        YYYYYYYYYYYYYYYY        ",
"         YYYYYYYYYYYYYY         ",
"           YYYYYYYYYY           ",
"                                ",
"                                ",
"                                ",
"                                "};