/* XPM */
static char *wall_xpm[] = {
"32 32 3 1",
" 	c #0D1012",
"B	c #1EAA3A",
".	c #000000",
"                                ",
"                                ",
"    BBBBBBBBBBBBBBBBBBBBBBBB    ",
"   BBBBBBBBBBBBBBBBBBBBBBBBBB   ",
"  BBBB....................BBBB  ",
"  BBB......................BBB  ",
"  BB........................BB  ",
"  BB........................BB  ",
"  BB........................BB  ",
"  BB........................BB  ",
"  BB........................BB  ",
"  BB........................BB  ",
"  BB........................BB  ",
"  BB........................BB  ",
"  BB........................BB  ",
"  BB........................BB  ",
"  BB........................BB  ",
"  BB........................BB  ",
"  BB........................BB  ",
"  BB........................BB  ",
"  BB........................BB  ",
"  BB........................BB  ",
"  BB........................BB  ",
"  BB........................BB  ",
"  BB........................BB  ",
"  BB........................BB  ",
"  BBB......................BBB  ",
"  BBBB....................BBBB  ",
"   BBBBBBBBBBBBBBBBBBBBBBBBBB   ",
"    BBBBBBBBBBBBBBBBBBBBBBBB    ",
"                                ",
"                                "};